<svg width="546" height="185" viewBox="0 0 546 185" fill="none" xmlns="http://www.w3.org/2000/svg">
<path d="M37.3065 115.706C26.6475 115.706 18.2325 113.836 12.0615 110.096C5.984 106.263 2.94525 101.261 2.94525 95.0895C2.94525 88.264 6.31125 81.8593 13.0433 75.8753C20.2428 69.5173 29.6863 65.2163 41.3738 62.9723C42.9633 62.6918 44.6463 62.458 46.4228 62.271C48.1993 62.084 49.9758 61.9905 51.7523 61.9905C62.5983 61.9905 69.938 64.6085 73.7715 69.8445C74.1455 70.312 74.3325 70.9198 74.3325 71.6678C74.3325 73.1638 73.9118 73.3975 73.0703 72.369C69.7043 67.6005 62.3645 65.2163 51.051 65.2163C47.498 65.2163 44.319 65.4968 41.514 66.0577C31.6965 67.9278 23.8893 71.621 18.0923 77.1375C12.5758 82.3735 9.8175 87.9368 9.8175 93.8273C9.8175 99.4373 12.342 103.925 17.391 107.291C22.3465 110.657 29.0785 112.34 37.587 112.34C45.628 112.34 53.0613 111.359 59.8868 109.395C66.7123 107.525 72.9768 104.86 78.6803 101.401C88.0303 95.6973 92.7053 88.1238 92.7053 78.6803C92.7053 67.8343 85.9265 58.0635 72.369 49.368C68.9095 47.124 66.011 45.1605 63.6735 43.4775C61.336 41.701 59.5128 40.205 58.2038 38.9895C53.2483 34.221 50.7705 29.172 50.7705 23.8425C50.7705 22.44 50.9108 21.131 51.1913 19.9155C52.5003 13.838 56.5675 8.92925 63.393 5.18925C69.6575 1.72975 76.4363 -2.44379e-06 83.7293 -2.44379e-06C92.0508 -2.44379e-06 98.362 1.44925 102.663 4.34775C105.749 6.40475 107.291 9.537 107.291 13.7445C107.291 16.456 106.497 18.9805 104.907 21.318C103.411 23.562 101.448 24.684 99.0165 24.684C97.24 24.684 95.6505 23.9827 94.248 22.5802C93.0325 21.3647 92.4248 19.9155 92.4248 18.2325C92.4248 13.7445 94.622 11.5005 99.0165 11.5005C101.635 11.5005 103.224 12.342 103.785 14.025C104.253 11.5005 103.271 9.30325 100.84 7.43325C97.0063 4.44125 92.004 2.94525 85.833 2.94525C79.3815 2.94525 73.491 4.7685 68.1615 8.415C62.458 12.2485 59.6063 16.6898 59.6063 21.7388C59.6063 28.2838 65.5903 35.0158 77.5583 41.9348C94.2948 51.4718 102.663 62.5048 102.663 75.0338C102.663 80.5503 100.887 85.8798 97.3335 91.0223C93.7805 96.2583 89.0588 100.559 83.1683 103.925C69.7043 111.779 54.417 115.706 37.3065 115.706ZM119.93 102.803C113.105 102.803 109.692 98.6425 109.692 90.321C109.692 86.207 110.674 81.8593 112.637 77.2778C115.442 70.6393 119.416 65.0293 124.558 60.4478C129.607 55.9598 134.376 53.7157 138.864 53.7157C145.783 53.7157 149.242 57.783 149.242 65.9175C149.242 70.125 148.214 74.5663 146.157 79.2413C143.726 84.8513 140.22 89.947 135.638 94.5285C129.935 100.045 124.699 102.803 119.93 102.803ZM122.174 99.7178C124.325 99.7178 126.615 98.8295 129.046 97.053C132.132 94.809 135.638 90.134 139.565 83.028C143.866 75.361 146.017 69.19 146.017 64.515C146.017 60.3075 144.24 58.2038 140.687 58.2038C137.882 58.2038 134.703 59.9803 131.15 63.5333C127.691 66.9928 124.745 71.3873 122.314 76.7168C119.042 83.7293 117.406 89.3393 117.406 93.5468C117.406 97.6608 118.995 99.7178 122.174 99.7178ZM146.446 103.785C148.316 99.2035 150.654 93.5468 153.459 86.8148C156.264 80.0828 159.676 72.3223 163.697 63.5333C164.538 61.6633 165.333 60.1205 166.081 58.905C166.829 57.6895 167.53 56.7545 168.185 56.1C169.494 54.791 171.177 54.1365 173.234 54.1365C173.421 54.1365 173.748 54.1365 174.216 54.1365C174.683 54.1365 175.338 54.23 176.179 54.417C177.488 54.5105 178.47 54.5105 179.124 54.417C175.665 56.474 170.476 65.5435 163.557 81.6255C164.679 80.036 166.175 78.3063 168.045 76.4363C170.008 74.4728 172.299 72.3223 174.917 69.9848C176.6 68.3953 178.47 66.8993 180.527 65.4968C182.584 64.0008 184.828 62.5983 187.259 61.2893C192.775 58.2038 196.843 56.661 199.461 56.661C200.115 56.661 200.583 56.7078 200.863 56.8013C199.367 59.4193 197.965 61.9438 196.656 64.3748C195.44 66.8058 194.271 69.0965 193.149 71.247C187.726 81.719 184.688 88.9653 184.033 92.9858C183.94 93.6403 183.846 94.248 183.753 94.809C183.753 95.37 183.753 95.8843 183.753 96.3518C183.753 98.7828 184.641 99.9983 186.417 99.9983C189.316 99.9983 192.775 97.053 196.796 91.1625L198.759 92.565C193.991 99.7645 189.176 103.364 184.314 103.364C178.423 103.364 175.478 100.326 175.478 94.248C175.478 89.2925 178.517 81.9528 184.594 72.2288C185.529 70.7328 185.997 69.4705 185.997 68.442C185.997 67.32 185.482 66.759 184.454 66.759C183.425 66.759 182.07 67.32 180.387 68.442C178.797 69.4705 176.88 71.0133 174.636 73.0703C171.083 76.3428 167.764 80.2698 164.679 84.8513C161.593 89.3393 158.788 94.4818 156.264 100.279C155.703 101.681 154.253 102.523 151.916 102.803C148.924 103.084 147.101 103.411 146.446 103.785ZM199.451 103.785C202.63 96.492 207.165 86.0668 213.055 72.5093C219.039 58.8583 226.426 42.1218 235.215 22.2998C235.308 22.0193 235.355 21.7387 235.355 21.4582C235.448 21.1778 235.495 20.8973 235.495 20.6167C235.495 19.3077 234.934 17.9052 233.812 16.4092H241.386C244.004 16.4092 245.313 17.017 245.313 18.2325C245.313 18.887 245.032 19.8688 244.471 21.1778C241.573 27.4422 237.833 35.6702 233.251 45.8618C228.67 56.0533 223.2 68.2083 216.842 82.3268C218.244 80.3633 219.927 78.353 221.891 76.296C223.854 74.239 226.052 72.1353 228.483 69.9848C230.166 68.3953 232.036 66.8993 234.093 65.4968C236.15 64.0008 238.394 62.5983 240.825 61.2893C246.341 58.2038 250.408 56.661 253.026 56.661C253.681 56.661 254.148 56.7078 254.429 56.8013C252.933 59.4193 251.53 61.9438 250.221 64.3748C249.006 66.8058 247.837 69.0965 246.715 71.247C241.292 81.719 238.253 88.9653 237.599 92.9858C237.318 94.3883 237.178 95.6038 237.178 96.6323C237.178 99.1568 238.113 100.419 239.983 100.419C242.508 100.419 245.92 97.2868 250.221 91.0223L252.325 92.2845C247.463 99.671 242.648 103.364 237.879 103.364C231.989 103.364 229.044 100.326 229.044 94.248C229.044 89.2925 232.082 81.9528 238.16 72.2288C239.095 70.7328 239.562 69.4705 239.562 68.442C239.562 67.32 239.048 66.759 238.02 66.759C236.991 66.759 235.635 67.32 233.952 68.442C232.363 69.4705 230.446 71.0133 228.202 73.0703C224.649 76.3428 221.283 80.3165 218.104 84.9915C215.019 89.573 212.12 94.8558 209.409 100.84C208.754 102.242 207.258 102.99 204.921 103.084C201.835 103.271 200.012 103.505 199.451 103.785ZM267.028 102.803C260.203 102.803 256.79 98.6425 256.79 90.321C256.79 86.207 257.772 81.8593 259.735 77.2778C262.54 70.6393 266.514 65.0293 271.657 60.4478C276.706 55.9598 281.474 53.7157 285.962 53.7157C292.881 53.7157 296.341 57.783 296.341 65.9175C296.341 70.125 295.312 74.5663 293.255 79.2413C290.824 84.8513 287.318 89.947 282.736 94.5285C277.033 100.045 271.797 102.803 267.028 102.803ZM269.272 99.7178C271.423 99.7178 273.714 98.8295 276.145 97.053C279.23 94.809 282.736 90.134 286.663 83.028C290.964 75.361 293.115 69.19 293.115 64.515C293.115 60.3075 291.338 58.2038 287.785 58.2038C284.98 58.2038 281.801 59.9803 278.248 63.5333C274.789 66.9928 271.844 71.3873 269.413 76.7168C266.14 83.7293 264.504 89.3393 264.504 93.5468C264.504 97.6608 266.093 99.7178 269.272 99.7178ZM308.13 103.364C303.455 103.364 299.856 101.962 297.331 99.1568C295.274 96.8193 294.246 94.0143 294.246 90.7418C294.246 85.9733 295.742 83.589 298.734 83.589C299.856 83.589 300.884 84.0098 301.819 84.8513C302.754 85.7863 303.222 86.8615 303.222 88.077C303.222 88.825 303.035 89.4328 302.661 89.9003C301.445 91.3963 300.837 93.0325 300.837 94.809C300.837 96.5855 301.398 98.0348 302.52 99.1568C303.736 100.372 305.279 100.98 307.149 100.98C309.112 100.98 310.889 100.326 312.478 99.0165C314.629 97.053 315.704 94.3415 315.704 90.882C315.704 87.89 314.909 84.524 313.32 80.784C312.665 79.849 311.87 78.6335 310.935 77.1375C310.094 75.6415 309.112 73.865 307.99 71.808C307.336 70.686 306.868 69.564 306.588 68.442C306.401 67.2265 306.307 66.0578 306.307 64.9358C306.307 61.0088 307.756 57.8765 310.655 55.539C313.647 53.108 317.48 51.8925 322.155 51.8925C323.464 51.8925 324.727 52.0328 325.942 52.3133C327.251 52.5938 328.42 53.108 329.448 53.856C331.599 55.4455 332.674 57.409 332.674 59.7465C332.674 60.775 332.487 61.71 332.113 62.5515C331.272 64.9825 329.448 66.198 326.643 66.198C323.558 66.198 322.015 64.6085 322.015 61.4295C322.015 60.4945 322.155 59.6998 322.436 59.0453C322.716 58.1103 323.745 57.1752 325.521 56.2403C324.867 55.0247 323.651 54.417 321.875 54.417C320.285 54.417 319.117 54.791 318.369 55.539C316.125 57.5025 315.003 59.9803 315.003 62.9723C315.003 65.0293 315.564 67.2733 316.686 69.7043C316.873 70.0783 318.696 73.0235 322.155 78.54C324.493 82.28 325.662 85.4123 325.662 87.9368C325.662 91.9573 323.792 95.5103 320.052 98.5958C316.312 101.775 312.338 103.364 308.13 103.364Z" fill="#3B3B3B"/>
<path d="M234.807 171.478C231.713 171.478 230.166 169.504 230.166 165.556C230.166 163.849 230.459 162.249 231.046 160.755C227.045 167.797 223.204 171.318 219.523 171.318C219.309 171.318 219.096 171.318 218.882 171.318C218.669 171.265 218.429 171.211 218.162 171.158C215.495 170.411 214.161 168.384 214.161 165.076C214.161 162.622 214.828 159.901 216.162 156.914C216.802 155.473 217.495 154.113 218.242 152.832C219.042 151.499 219.923 150.272 220.883 149.151C224.244 145.097 228.085 143.069 232.407 143.069C234.327 143.069 236.114 143.55 237.768 144.51C238.675 142.749 239.742 140.295 240.969 137.148C242.25 133.947 243.717 130.079 245.371 125.544C246.011 123.783 246.678 122.636 247.371 122.103C248.172 121.569 249.239 121.329 250.572 121.383L252.253 121.623C252.626 121.676 252.946 121.729 253.213 121.783C253.48 121.783 253.72 121.756 253.933 121.703C253.4 122.29 252.413 123.943 250.972 126.664C249.532 129.332 247.665 133.093 245.371 137.948C243.023 142.856 241.023 147.231 239.369 151.072C237.768 154.913 236.488 158.167 235.528 160.835C234.727 163.076 234.327 165.023 234.327 166.677C234.327 168.491 234.941 169.398 236.168 169.398C237.768 169.398 239.475 167.93 241.289 164.996L241.609 164.596L242.89 165.236L242.57 165.636C240.116 169.531 237.528 171.478 234.807 171.478ZM220.323 169.077C222.083 169.077 224.217 167.344 226.725 163.876C229.392 160.088 232.94 154.059 237.368 145.79C236.728 145.15 235.954 144.83 235.047 144.83C232.86 144.83 230.299 146.297 227.365 149.231C224.591 151.952 222.27 155.073 220.403 158.594C218.909 161.368 218.162 163.796 218.162 165.876C218.162 168.01 218.882 169.077 220.323 169.077ZM252.775 171.798C250.695 171.798 248.908 171.131 247.414 169.798C246.614 169.051 246.027 168.197 245.653 167.237C245.333 166.223 245.173 165.076 245.173 163.796C245.173 158.888 247.2 154.006 251.255 149.151C254.669 145.043 258.217 142.989 261.898 142.989C263.125 142.989 264.166 143.309 265.019 143.95C265.926 144.697 266.38 145.657 266.38 146.831C266.38 149.765 264.432 152.699 260.538 155.633C259.311 156.54 257.684 157.34 255.656 158.034C253.416 158.781 251.789 159.154 250.775 159.154C250.028 160.968 249.655 162.889 249.655 164.916C249.655 168.384 250.935 170.118 253.496 170.118C256.857 170.118 260.004 167.93 262.939 163.556L263.259 163.076L264.619 163.636L264.379 164.116C263.045 166.783 261.365 168.731 259.338 169.958C257.31 171.185 255.123 171.798 252.775 171.798ZM251.255 157.794C252.162 157.794 253.416 157.501 255.016 156.914C255.923 156.54 256.777 156.14 257.577 155.713C258.431 155.287 259.177 154.806 259.818 154.273C262.752 151.819 264.219 149.231 264.219 146.51C264.219 145.337 263.792 144.75 262.939 144.75C261.445 144.75 259.177 146.59 256.137 150.272C254.589 152.139 252.962 154.646 251.255 157.794Z" fill="#3B3B3B"/>
<path d="M392.56 154.216C392.934 155.151 393.121 156.039 393.121 156.881C393.121 159.031 392.139 161.182 390.176 163.332C388.212 165.389 385.828 167.072 383.023 168.381C380.311 169.69 377.88 170.345 375.73 170.345C370.868 170.345 367.315 167.4 365.071 161.509C362.92 155.525 361.237 148.279 360.022 139.77C359.741 137.807 359.227 136.545 358.479 135.984C357.731 135.329 356.375 135.002 354.412 135.002L335.057 135.142C332.252 135.142 328.793 135.049 324.679 134.862L322.996 137.526C318.134 145.38 314.067 151.505 310.794 155.899C307.615 160.2 304.015 163.8 299.995 166.698C295.974 169.597 291.486 171.046 286.531 171.046C283.071 171.046 280.266 170.392 278.116 169.083C275.872 167.774 274.235 166.184 273.207 164.314C272.178 162.444 271.664 160.668 271.664 158.985C271.664 157.208 272.132 155.619 273.067 154.216C274.002 152.72 275.077 151.645 276.292 150.99C276.292 155.011 277.274 158.283 279.238 160.808C281.108 163.239 283.866 164.454 287.513 164.454C292.562 164.454 297.377 162.023 301.958 157.161C306.54 152.206 312.01 144.586 318.368 134.301C313.412 133.74 310.794 132.805 310.514 131.496C310.327 131.028 310.42 130.233 310.794 129.111C311.262 127.989 311.776 127.148 312.337 126.587C313.739 127.148 316.965 127.756 322.014 128.41C323.136 126.447 324.632 123.969 326.502 120.977C342.584 94.3293 352.963 77.3123 357.638 69.9258C358.666 68.2428 359.648 67.1208 360.583 66.5598C361.518 65.9988 362.546 65.7183 363.668 65.7183C365.164 65.7183 366.707 65.952 368.297 66.4195C366.333 69.879 365.258 75.7228 365.071 83.9508L364.931 90.823C364.931 100.36 365.305 110.972 366.053 122.66C366.894 135.937 368.156 145.988 369.839 152.814C371.616 159.546 374.514 162.912 378.535 162.912C380.498 162.912 382.742 162.117 385.267 160.527C387.885 158.844 390.316 156.741 392.56 154.216ZM344.594 129.813C347.119 129.813 351.887 129.672 358.9 129.392C358.713 122.473 358.526 114.853 358.339 106.531C358.245 98.116 358.152 90.823 358.058 84.652V80.0238C347.306 98.0693 337.395 114.432 328.325 129.111C334.403 129.579 339.826 129.813 344.594 129.813ZM470.511 135.282C471.446 135.282 472.101 135.703 472.475 136.545C472.942 137.293 473.176 138.181 473.176 139.209C473.176 142.575 471.4 146.83 467.847 151.972C464.294 157.115 459.759 161.603 454.242 165.436C448.819 169.27 443.443 171.186 438.114 171.186C434.748 171.186 432.13 170.345 430.26 168.662C428.483 166.979 427.595 164.408 427.595 160.948C427.595 156.18 428.904 149.728 431.522 141.594C434.14 133.366 436.524 126.54 438.675 121.117C438.301 120.556 437.927 120.276 437.553 120.276C437.179 120.276 436.758 120.416 436.29 120.696C434.607 121.725 431.849 124.016 428.016 127.569C424.182 131.122 420.442 134.862 416.796 138.789C413.149 142.716 410.671 145.895 409.362 148.326C407.866 152.346 406.931 154.917 406.557 156.039C406.183 157.068 405.809 158.798 405.435 161.229L404.173 167.54C404.08 167.82 403.986 168.194 403.893 168.662C403.799 169.036 403.659 169.27 403.472 169.363C403.378 169.457 403.191 169.503 402.911 169.503C402.069 169.503 400.947 169.41 399.545 169.223C398.236 169.036 397.581 168.755 397.581 168.381C397.581 167.259 397.909 165.436 398.563 162.912C399.218 160.387 399.872 158.096 400.527 156.039C401.181 153.982 401.695 152.393 402.069 151.271L403.332 147.344C406.043 137.994 407.866 131.215 408.801 127.008C409.83 122.707 410.812 117.938 411.747 112.702C411.84 111.767 412.495 111.3 413.71 111.3C414.552 111.3 415.487 111.533 416.515 112.001C417.637 112.375 418.292 112.936 418.479 113.684C418.105 115.367 417.403 118.219 416.375 122.239C415.44 126.26 414.271 130.701 412.869 135.563C418.292 129.485 423.902 123.969 429.699 119.013C435.589 114.058 439.516 111.58 441.48 111.58C442.415 111.58 443.537 112.048 444.846 112.983C446.155 113.918 446.949 114.806 447.23 115.647C444.238 123.688 441.386 132.477 438.675 142.014C435.963 151.458 434.607 157.676 434.607 160.668C434.607 163.94 436.477 165.576 440.217 165.576C445.734 165.576 451.297 162.491 456.907 156.32C462.611 150.149 467.145 143.136 470.511 135.282ZM544.186 137.106C545.402 137.106 546.01 138.321 546.01 140.752C546.01 145.053 544.093 149.588 540.259 154.356C536.519 159.125 531.938 163.145 526.515 166.418C521.185 169.597 516.277 171.186 511.789 171.186C508.142 171.186 505.337 170.064 503.374 167.82C501.41 165.576 500.241 162.678 499.867 159.125C497.53 162.491 494.585 165.249 491.032 167.4C487.479 169.55 484.3 170.625 481.495 170.625C479.064 170.625 476.633 169.831 474.202 168.241C471.864 166.558 469.947 164.548 468.451 162.21C466.955 159.779 466.161 157.489 466.067 155.338L472.939 127.008C473.5 124.764 474.903 122.379 477.147 119.855C479.484 117.237 482.289 115.086 485.562 113.403C488.834 111.72 492.154 110.879 495.52 110.879C499.821 110.879 503.607 112.328 506.88 115.227C507.721 112.983 508.329 111.58 508.703 111.019C509.171 110.458 509.825 110.131 510.667 110.037L517.539 109.336L517.96 109.617C516.09 111.113 514.734 113.45 513.892 116.629C510.994 127.475 508.984 135.469 507.862 140.612C506.833 145.754 506.319 150.289 506.319 154.216C506.319 158.143 506.833 161.042 507.862 162.912C508.89 164.688 510.62 165.576 513.051 165.576C516.043 165.576 519.596 164.361 523.71 161.93C527.917 159.499 531.891 156.133 535.631 151.832C539.371 147.437 542.223 142.529 544.186 137.106ZM482.056 164.034C483.645 164.034 485.562 163.473 487.806 162.351C490.143 161.229 492.294 159.639 494.257 157.582C496.314 155.432 497.717 153.001 498.465 150.289L501.13 138.789C501.504 136.919 502.158 133.927 503.093 129.813C504.028 125.605 504.776 122.379 505.337 120.135C502.719 117.517 499.54 116.208 495.8 116.208C492.902 116.208 490.284 117.003 487.946 118.593C485.609 120.089 483.692 121.959 482.196 124.203C480.7 126.353 479.765 128.27 479.391 129.953L473.781 154.917C473.968 157.255 474.903 159.359 476.586 161.229C478.269 163.099 480.092 164.034 482.056 164.034Z" fill="#3B3B3B"/>
<path d="M371.398 68.3075C363.355 59.7097 360.674 54.4401 360.859 51.3893C361.136 48.6158 363.632 47.5064 365.297 49.7252C366.406 51.2043 365.574 55.5495 371.398 63.5926C377.179 71.575 386.837 77.46 391.367 79.1241C388.409 78.1072 378.799 76.2189 371.398 68.3075Z" fill="#E9957A"/>
<path d="M383.324 31.9748C374.893 40.4062 375.928 56.9362 377.5 64.1473C382.585 63.4077 395.139 59.6542 404.68 50.5572C414.221 41.4602 416.051 23.2846 415.774 15.3339C408.471 17.3678 391.756 23.5434 383.324 31.9748Z" fill="#E9957A"/>
<path d="M399.133 61.0964C393.098 60.4204 384.117 64.1198 381.72 67.0338C383.618 68.8208 386.658 72.6713 393.309 73.5771C399.96 74.483 411.287 68.1682 414.387 65.534C411.272 63.2756 405.168 61.7725 399.133 61.0964Z" fill="#E9957A"/>
<path d="M368.902 23.377C364.908 31.1428 368.902 46.397 371.398 53.0533L374.726 50.8345C375.004 48.0611 374.584 42.8909 377.025 36.6782C379.466 30.4656 388.132 23.6544 391.367 21.9903L384.988 2.85324C381.29 6.45877 372.896 15.6113 368.902 23.377Z" fill="#E9957A"/>
<path d="M335.059 37.2445C340.149 37.1844 343.202 37.9071 348.933 40.2953C355.253 44.1357 356.288 46.4415 358.086 50.5572C354.887 45.7753 352.783 43.6772 348.101 41.682C343.23 40.073 340.381 39.5654 335.059 39.4633C333.956 39.4633 333.679 37.5218 335.059 37.2445Z" fill="#E9957A"/>
<path d="M340.16 26.7087C346.437 28.9274 345.605 28.6501 349.488 31.4202C353.925 35.303 356.288 41.1719 358.086 45.2876C354.887 40.5057 353.093 36.6898 348.933 33.9163C343.386 30.0334 344.495 31.1428 340.16 28.9274C338.948 28.3085 338.78 26.986 340.16 26.7087Z" fill="#E9957A"/>
</svg>
